<svg width="310" height="56" viewBox="0 0 310 56" fill="none" xmlns="http://www.w3.org/2000/svg">
<g filter="url(#filter0_d)">
<path d="M38.7951 20.496V26.688H31.7871V47.376H25.2591V7.488H31.7871V20.496H38.7951ZM22.5231 31.296V37.488H1.64313V10.608H8.65113V31.296H22.5231ZM76.2824 7.008V47.424H69.0824V35.136C67.8984 36.192 66.6024 37.088 65.1944 37.824C63.7864 38.56 62.3304 39.184 60.8264 39.696C59.3224 40.176 57.8024 40.56 56.2664 40.848C54.7304 41.136 53.2584 41.344 51.8504 41.472C48.5224 41.824 45.1304 41.856 41.6744 41.568V34.944C43.4344 35.296 45.2584 35.472 47.1464 35.472C49.0664 35.44 50.9544 35.296 52.8104 35.04C54.6984 34.784 56.5064 34.464 58.2344 34.08C59.9944 33.664 61.5784 33.248 62.9864 32.832C64.4264 32.416 65.6584 32.032 66.6824 31.68C67.7384 31.296 68.5064 31.008 68.9864 30.816V7.008H76.2824ZM56.3144 8.064C57.3064 8.064 58.2024 8.24 59.0024 8.592C59.8024 8.912 60.4904 9.376 61.0664 9.984C61.6424 10.592 62.0744 11.296 62.3624 12.096C62.6824 12.896 62.8424 13.744 62.8424 14.64V21.168C62.8424 23.184 62.2184 24.784 60.9704 25.968C59.7224 27.12 57.9944 27.696 55.7864 27.696H50.0264C49.1624 27.696 48.3304 27.552 47.5304 27.264C46.7304 26.976 46.0104 26.576 45.3704 26.064C44.7624 25.52 44.2664 24.88 43.8824 24.144C43.5304 23.376 43.3544 22.544 43.3544 21.648V14.64C43.3544 13.744 43.5144 12.896 43.8344 12.096C44.1864 11.296 44.6504 10.592 45.2264 9.984C45.8344 9.376 46.5384 8.912 47.3384 8.592C48.1704 8.24 49.0664 8.064 50.0264 8.064H56.3144ZM57.0344 15.888C57.0344 15.12 56.7624 14.48 56.2184 13.968C55.7064 13.424 55.0504 13.152 54.2504 13.152H52.1864C51.3864 13.152 50.6824 13.424 50.0744 13.968C49.4664 14.48 49.1624 15.12 49.1624 15.888V19.872C49.1624 20.672 49.4664 21.344 50.0744 21.888C50.6824 22.4 51.3864 22.656 52.1864 22.656H54.2504C55.0504 22.656 55.7064 22.4 56.2184 21.888C56.7624 21.344 57.0344 20.672 57.0344 19.872V15.888ZM99.7139 38.256C98.8819 38.256 98.0179 38.128 97.1219 37.872C96.2259 37.584 95.3779 37.12 94.5779 36.48C93.8099 35.84 93.1219 34.992 92.5139 33.936C91.9379 32.88 91.5539 31.568 91.3619 30V18.192C91.3619 16.944 91.6499 15.776 92.2259 14.688C92.8339 13.568 93.5859 12.608 94.4819 11.808C95.4099 10.976 96.4179 10.32 97.5059 9.84C98.6259 9.36 99.6979 9.12 100.722 9.12H104.082C105.138 9.12 106.178 9.36 107.202 9.84C108.258 10.32 109.186 10.976 109.986 11.808C110.818 12.608 111.49 13.568 112.002 14.688C112.514 15.776 112.77 16.944 112.77 18.192V30C112.77 31.248 112.53 32.384 112.05 33.408C111.57 34.4 110.946 35.264 110.178 36C109.442 36.704 108.626 37.264 107.73 37.68C106.834 38.064 105.97 38.256 105.138 38.256H99.7139ZM127.938 7.056V47.424H121.218V33.936H115.026V28.32H121.218V23.328H115.026V17.664H121.218V7.056H127.938ZM103.17 33.216C103.778 33.216 104.322 33.088 104.802 32.832C105.314 32.544 105.73 32.208 106.05 31.824C106.402 31.408 106.674 30.96 106.866 30.48C107.058 29.968 107.154 29.472 107.154 28.992V18.672C107.154 18.16 107.026 17.664 106.77 17.184C106.546 16.704 106.242 16.288 105.858 15.936C105.506 15.552 105.09 15.264 104.61 15.072C104.13 14.848 103.65 14.736 103.17 14.736H101.154C100.674 14.736 100.178 14.848 99.6659 15.072C99.1859 15.264 98.7379 15.552 98.3219 15.936C97.9379 16.288 97.6179 16.704 97.3619 17.184C97.1059 17.664 96.9779 18.16 96.9779 18.672V28.992C96.9779 29.376 97.0739 29.808 97.2659 30.288C97.4899 30.768 97.7779 31.232 98.1299 31.68C98.5139 32.096 98.9619 32.464 99.4739 32.784C99.9859 33.072 100.546 33.216 101.154 33.216H103.17ZM145.327 9.84H152.767V14.304H149.887C150.623 15.52 150.991 16.992 150.991 18.72V22.944C150.991 23.84 150.815 24.704 150.463 25.536C150.143 26.368 149.663 27.12 149.023 27.792C148.383 28.432 147.615 28.944 146.719 29.328C145.823 29.712 144.831 29.904 143.743 29.904H139.279C138.415 29.904 137.599 29.76 136.831 29.472C136.063 29.184 135.391 28.752 134.815 28.176C134.271 27.6 133.823 26.896 133.471 26.064C133.151 25.2 132.991 24.192 132.991 23.04V18.72C132.991 17.056 133.455 15.584 134.383 14.304H130.831V9.84H138.655V7.008H145.327V9.84ZM162.511 33.84C163.215 33.84 163.903 33.968 164.575 34.224C165.279 34.448 165.887 34.784 166.399 35.232C166.911 35.648 167.327 36.16 167.647 36.768C167.967 37.376 168.127 38.048 168.127 38.784V42.72C168.127 44.064 167.631 45.168 166.639 46.032C165.679 46.928 164.463 47.376 162.991 47.376H144.367C143.951 47.376 143.471 47.28 142.927 47.088C142.383 46.928 141.839 46.656 141.295 46.272C140.783 45.92 140.319 45.456 139.903 44.88C139.487 44.304 139.215 43.6 139.087 42.768V38.784C139.215 37.92 139.535 37.184 140.047 36.576C140.559 35.936 141.151 35.424 141.823 35.04C142.495 34.624 143.167 34.32 143.839 34.128C144.543 33.936 145.167 33.84 145.711 33.84H162.511ZM162.799 7.008H168.271V30.336H162.799V22.224H159.247V30.336H153.775V7.008H159.247V17.616H162.799V7.008ZM160.447 38.832H147.679C146.751 38.832 146.143 38.992 145.855 39.312C145.567 39.6 145.343 39.904 145.183 40.224L145.135 41.472C145.423 42.112 145.759 42.48 146.143 42.576C146.527 42.672 147.039 42.72 147.679 42.72H160.495C161.039 42.72 161.503 42.624 161.887 42.432C162.303 42.24 162.511 41.92 162.511 41.472V40.56C162.511 40.112 162.303 39.712 161.887 39.36C161.503 39.008 161.023 38.832 160.447 38.832ZM145.423 22.368V19.152C145.423 18.352 145.247 17.68 144.895 17.136C144.575 16.592 144.015 16.32 143.215 16.32H141.007C140.207 16.32 139.599 16.592 139.183 17.136C138.799 17.68 138.607 18.352 138.607 19.152V22.512C138.607 24.112 139.439 24.912 141.103 24.912H142.927C143.727 24.912 144.335 24.688 144.751 24.24C145.199 23.792 145.423 23.168 145.423 22.368ZM192.503 14.976H177.815V20.976H191.303V26.496H177.815V32.976H193.463V38.544H171.143V9.456H192.503V14.976ZM202.391 20.496H207.959V26.688H202.391V47.424H196.247V7.536H202.391V20.496ZM223.71 8.64C224.574 8.64 225.39 8.816 226.158 9.168C226.958 9.488 227.646 9.952 228.222 10.56C228.83 11.168 229.294 11.872 229.614 12.672C229.966 13.472 230.142 14.336 230.142 15.264V21.888C230.142 22.816 229.966 23.68 229.614 24.48C229.294 25.28 228.83 25.984 228.222 26.592C227.646 27.2 226.958 27.68 226.158 28.032C225.39 28.352 224.574 28.512 223.71 28.512H217.518C216.654 28.512 215.806 28.352 214.974 28.032C214.174 27.68 213.47 27.2 212.862 26.592C212.254 25.984 211.758 25.28 211.374 24.48C211.022 23.68 210.846 22.816 210.846 21.888V15.264C210.846 14.336 211.022 13.472 211.374 12.672C211.758 11.872 212.254 11.168 212.862 10.56C213.47 9.952 214.174 9.488 214.974 9.168C215.806 8.816 216.654 8.64 217.518 8.64H223.71ZM224.526 20.544V16.608C224.526 15.776 224.254 15.104 223.71 14.592C223.166 14.048 222.494 13.776 221.694 13.776H219.534C218.734 13.776 218.03 14.048 217.422 14.592C216.846 15.104 216.558 15.776 216.558 16.608V20.544C216.558 21.376 216.846 22.064 217.422 22.608C218.03 23.152 218.734 23.424 219.534 23.424H221.694C222.494 23.424 223.166 23.152 223.71 22.608C224.254 22.064 224.526 21.376 224.526 20.544ZM236.718 6.96H242.382V29.568H236.718V6.96ZM242.526 47.376H215.838V32.064H221.934V36H236.766V32.064H242.526V47.376ZM221.934 43.152H236.766V39.792H221.934V43.152ZM270.881 7.488C272.993 7.488 274.673 8.064 275.921 9.216C277.201 10.336 277.841 11.84 277.841 13.728V16.848C277.841 18.512 277.185 19.92 275.873 21.072C274.593 22.224 272.641 22.8 270.017 22.8H257.441C256.193 22.8 255.105 22.64 254.177 22.32C253.249 22 252.465 21.568 251.825 21.024C251.185 20.48 250.705 19.856 250.385 19.152C250.065 18.448 249.905 17.712 249.905 16.944V13.296C249.905 11.536 250.545 10.128 251.825 9.072C253.105 8.016 254.801 7.488 256.913 7.488H270.881ZM250.145 46.944V33.648H255.617V41.424H277.601V46.944H250.145ZM282.353 31.104H245.393V26.16H282.353V31.104ZM269.345 18.432C270.177 18.432 270.865 18.176 271.409 17.664C271.985 17.152 272.273 16.384 272.273 15.36C272.273 14.56 271.985 13.872 271.409 13.296C270.865 12.688 270.177 12.384 269.345 12.384H258.305C257.441 12.384 256.705 12.688 256.097 13.296C255.521 13.872 255.233 14.56 255.233 15.36C255.233 16.128 255.505 16.832 256.049 17.472C256.625 18.112 257.377 18.432 258.305 18.432H269.345Z" fill="#815854"/>
</g>
<g filter="url(#filter1_d)">
<path d="M292.328 33.1953C292.328 30.9141 292.586 29.1172 293.102 27.8047C293.617 26.4766 294.453 25.3281 295.609 24.3594C296.766 23.3906 297.641 22.5078 298.234 21.7109C298.844 20.8984 299.148 20.0078 299.148 19.0391C299.148 16.6797 298.133 15.5 296.102 15.5C295.164 15.5 294.406 15.8438 293.828 16.5312C293.25 17.2188 292.945 18.1484 292.914 19.3203H284.992C285.023 16.1953 286.008 13.7656 287.945 12.0312C289.883 10.2812 292.602 9.40625 296.102 9.40625C299.586 9.40625 302.281 10.2109 304.188 11.8203C306.109 13.4297 307.07 15.7187 307.07 18.6875C307.07 19.9844 306.812 21.1641 306.297 22.2266C305.781 23.2891 304.953 24.375 303.812 25.4844L301.117 27.9922C300.352 28.7266 299.82 29.4844 299.523 30.2656C299.227 31.0312 299.062 32.0078 299.031 33.1953H292.328ZM291.367 40.3203C291.367 39.1641 291.781 38.2188 292.609 37.4844C293.453 36.7344 294.5 36.3594 295.75 36.3594C297 36.3594 298.039 36.7344 298.867 37.4844C299.711 38.2188 300.133 39.1641 300.133 40.3203C300.133 41.4766 299.711 42.4297 298.867 43.1797C298.039 43.9141 297 44.2812 295.75 44.2812C294.5 44.2812 293.453 43.9141 292.609 43.1797C291.781 42.4297 291.367 41.4766 291.367 40.3203Z" fill="#815854"/>
</g>
<defs>
<filter id="filter0_d" x="1.64312" y="6.95996" width="282.71" height="44.464" filterUnits="userSpaceOnUse" color-interpolation-filters="sRGB">
<feFlood flood-opacity="0" result="BackgroundImageFix"/>
<feColorMatrix in="SourceAlpha" type="matrix" values="0 0 0 0 0 0 0 0 0 0 0 0 0 0 0 0 0 0 127 0"/>
<feOffset dx="2" dy="4"/>
<feColorMatrix type="matrix" values="0 0 0 0 0 0 0 0 0 0 0 0 0 0 0 0 0 0 0.13 0"/>
<feBlend mode="normal" in2="BackgroundImageFix" result="effect1_dropShadow"/>
<feBlend mode="normal" in="SourceGraphic" in2="effect1_dropShadow" result="shape"/>
</filter>
<filter id="filter1_d" x="284.992" y="9.40625" width="24.0781" height="38.875" filterUnits="userSpaceOnUse" color-interpolation-filters="sRGB">
<feFlood flood-opacity="0" result="BackgroundImageFix"/>
<feColorMatrix in="SourceAlpha" type="matrix" values="0 0 0 0 0 0 0 0 0 0 0 0 0 0 0 0 0 0 127 0"/>
<feOffset dx="2" dy="4"/>
<feColorMatrix type="matrix" values="0 0 0 0 0 0 0 0 0 0 0 0 0 0 0 0 0 0 0.13 0"/>
<feBlend mode="normal" in2="BackgroundImageFix" result="effect1_dropShadow"/>
<feBlend mode="normal" in="SourceGraphic" in2="effect1_dropShadow" result="shape"/>
</filter>
</defs>
</svg>
