<svg xmlns="http://www.w3.org/2000/svg" viewBox="0 0 101.82 101.78"><defs><style>.cls-1{fill:#1daa99;}.cls-2{fill:#fc7572;}.cls-3{fill:#fff;}.cls-4{fill:#f44545;}</style></defs><title>Recurso 47</title><g id="Capa_2" data-name="Capa 2"><g id="Capa_1-2" data-name="Capa 1"><ellipse class="cls-1" cx="50.91" cy="50.89" rx="50.91" ry="50.89"/><path class="cls-2" d="M64.08,81.39h-27a6.61,6.61,0,0,1-6.59-6.59V43A15.76,15.76,0,0,1,46.24,27.32h8.69A15.76,15.76,0,0,1,70.65,43V74.8A6.59,6.59,0,0,1,64.08,81.39Z"/><path class="cls-3" d="M74.4,34.4l-46,0c-2.62,0-3.39-2.25-3.39-5.13h0c0-2.88.77-5.34,3.39-5.34l47.46.1c1.4.56,2.19,2.36,2.19,5.24h0C77.17,33.27,78.06,34.54,74.4,34.4Z"/><path class="cls-2" d="M53.5,47.41H47.65A10.61,10.61,0,0,1,37.07,36.83v-13a3.39,3.39,0,0,1,3.38-3.38H60.71a3.39,3.39,0,0,1,3.38,3.38v13A10.62,10.62,0,0,1,53.5,47.41Z"/><ellipse class="cls-2" cx="76.2" cy="29.21" rx="1.86" ry="5.13"/><path class="cls-4" d="M60.09,76.65h-19A6.15,6.15,0,0,1,35,70.52V57.83H66.22V70.52A6.15,6.15,0,0,1,60.09,76.65Z"/><path class="cls-3" d="M51,62.89h-.81a1.47,1.47,0,0,1-1.46-1.46V56.91a1.47,1.47,0,0,1,1.46-1.46H51a1.47,1.47,0,0,1,1.46,1.46v4.52A1.47,1.47,0,0,1,51,62.89Z"/><path class="cls-3" d="M51,46.94h-.81a1.47,1.47,0,0,1-1.46-1.46V41a1.47,1.47,0,0,1,1.46-1.46H51A1.47,1.47,0,0,1,52.46,41v4.52A1.47,1.47,0,0,1,51,46.94Z"/><path class="cls-4" d="M25.65,76.65h3.42A2.65,2.65,0,0,0,31.72,74V60.26a2.43,2.43,0,0,0-2.42-2.42h0a7.82,7.82,0,0,0-7.8,7.8l-.67,6.82C20.25,76.65,23.36,76.65,25.65,76.65Z"/><path class="cls-3" d="M21.06,68.78h.24a.43.43,0,0,0,.45-.41l.13-2.57a.43.43,0,0,0-.41-.45h-.24a.43.43,0,0,0-.45.41l-.13,2.57A.44.44,0,0,0,21.06,68.78Z"/><path class="cls-4" d="M75.49,76.65H72.07A2.65,2.65,0,0,1,69.42,74V60.26a2.43,2.43,0,0,1,2.42-2.42h0a7.82,7.82,0,0,1,7.8,7.8l.67,6.82C80.89,76.65,77.78,76.65,75.49,76.65Z"/><path class="cls-3" d="M80.08,68.78h-.24a.43.43,0,0,1-.45-.41l-.13-2.57a.43.43,0,0,1,.41-.45h.24a.43.43,0,0,1,.45.41l.13,2.57A.44.44,0,0,1,80.08,68.78Z"/></g></g></svg>