<svg width="254" height="91" viewBox="0 0 254 91" fill="none" xmlns="http://www.w3.org/2000/svg">
<g filter="url(#filter0_d)">
<path d="M28.3734 12.32V16.835H23.2634V31.92H18.5034V2.835H23.2634V12.32H28.3734ZM16.5084 20.195V24.71H1.2834V5.11H6.3934V20.195H16.5084ZM55.7079 2.485V31.955H50.4579V22.995C49.5945 23.765 48.6495 24.4183 47.6229 24.955C46.5962 25.4917 45.5345 25.9467 44.4379 26.32C43.3412 26.67 42.2329 26.95 41.1129 27.16C39.9929 27.37 38.9195 27.5217 37.8929 27.615C35.4662 27.8717 32.9929 27.895 30.4729 27.685V22.855C31.7562 23.1117 33.0862 23.24 34.4629 23.24C35.8629 23.2167 37.2395 23.1117 38.5929 22.925C39.9695 22.7383 41.2879 22.505 42.5479 22.225C43.8312 21.9217 44.9862 21.6183 46.0129 21.315C47.0629 21.0117 47.9612 20.7317 48.7079 20.475C49.4779 20.195 50.0379 19.985 50.3879 19.845V2.485H55.7079ZM41.1479 3.255C41.8712 3.255 42.5245 3.38333 43.1079 3.64C43.6912 3.87333 44.1929 4.21166 44.6129 4.655C45.0329 5.09833 45.3479 5.61167 45.5579 6.195C45.7912 6.77833 45.9079 7.39666 45.9079 8.05V12.81C45.9079 14.28 45.4529 15.4467 44.5429 16.31C43.6329 17.15 42.3729 17.57 40.7629 17.57H36.5629C35.9329 17.57 35.3262 17.465 34.7429 17.255C34.1595 17.045 33.6345 16.7533 33.1679 16.38C32.7245 15.9833 32.3629 15.5167 32.0829 14.98C31.8262 14.42 31.6979 13.8133 31.6979 13.16V8.05C31.6979 7.39666 31.8145 6.77833 32.0479 6.195C32.3045 5.61167 32.6429 5.09833 33.0629 4.655C33.5062 4.21166 34.0195 3.87333 34.6029 3.64C35.2095 3.38333 35.8629 3.255 36.5629 3.255H41.1479ZM41.6729 8.96C41.6729 8.4 41.4745 7.93333 41.0779 7.56C40.7045 7.16333 40.2262 6.965 39.6429 6.965H38.1379C37.5545 6.965 37.0412 7.16333 36.5979 7.56C36.1545 7.93333 35.9329 8.4 35.9329 8.96V11.865C35.9329 12.4483 36.1545 12.9383 36.5979 13.335C37.0412 13.7083 37.5545 13.895 38.1379 13.895H39.6429C40.2262 13.895 40.7045 13.7083 41.0779 13.335C41.4745 12.9383 41.6729 12.4483 41.6729 11.865V8.96Z" fill="#815854"/>
</g>
<g filter="url(#filter1_d)">
<path d="M43.8545 69.256C43.0225 69.256 42.1585 69.128 41.2625 68.872C40.3665 68.584 39.5185 68.12 38.7185 67.48C37.9505 66.84 37.2625 65.992 36.6545 64.936C36.0785 63.88 35.6945 62.568 35.5025 61V49.192C35.5025 47.944 35.7905 46.776 36.3665 45.688C36.9745 44.568 37.7265 43.608 38.6225 42.808C39.5505 41.976 40.5585 41.32 41.6465 40.84C42.7665 40.36 43.8385 40.12 44.8625 40.12H48.2225C49.2785 40.12 50.3185 40.36 51.3425 40.84C52.3985 41.32 53.3265 41.976 54.1265 42.808C54.9585 43.608 55.6305 44.568 56.1425 45.688C56.6545 46.776 56.9105 47.944 56.9105 49.192V61C56.9105 62.248 56.6705 63.384 56.1905 64.408C55.7105 65.4 55.0865 66.264 54.3185 67C53.5825 67.704 52.7665 68.264 51.8705 68.68C50.9745 69.064 50.1105 69.256 49.2785 69.256H43.8545ZM72.0785 38.056V78.424H65.3585V64.936H59.1665V59.32H65.3585V54.328H59.1665V48.664H65.3585V38.056H72.0785ZM47.3105 64.216C47.9185 64.216 48.4625 64.088 48.9425 63.832C49.4545 63.544 49.8705 63.208 50.1905 62.824C50.5425 62.408 50.8145 61.96 51.0065 61.48C51.1985 60.968 51.2945 60.472 51.2945 59.992V49.672C51.2945 49.16 51.1665 48.664 50.9105 48.184C50.6865 47.704 50.3825 47.288 49.9985 46.936C49.6465 46.552 49.2305 46.264 48.7505 46.072C48.2705 45.848 47.7905 45.736 47.3105 45.736H45.2945C44.8145 45.736 44.3185 45.848 43.8065 46.072C43.3265 46.264 42.8785 46.552 42.4625 46.936C42.0785 47.288 41.7585 47.704 41.5025 48.184C41.2465 48.664 41.1185 49.16 41.1185 49.672V59.992C41.1185 60.376 41.2145 60.808 41.4065 61.288C41.6305 61.768 41.9185 62.232 42.2705 62.68C42.6545 63.096 43.1025 63.464 43.6145 63.784C44.1265 64.072 44.6865 64.216 45.2945 64.216H47.3105ZM89.4673 40.84H96.9073V45.304H94.0273C94.7633 46.52 95.1313 47.992 95.1313 49.72V53.944C95.1313 54.84 94.9553 55.704 94.6033 56.536C94.2833 57.368 93.8033 58.12 93.1633 58.792C92.5233 59.432 91.7553 59.944 90.8593 60.328C89.9633 60.712 88.9713 60.904 87.8833 60.904H83.4193C82.5553 60.904 81.7393 60.76 80.9713 60.472C80.2033 60.184 79.5313 59.752 78.9553 59.176C78.4113 58.6 77.9633 57.896 77.6113 57.064C77.2913 56.2 77.1313 55.192 77.1313 54.04V49.72C77.1313 48.056 77.5953 46.584 78.5233 45.304H74.9713V40.84H82.7953V38.008H89.4673V40.84ZM106.651 64.84C107.355 64.84 108.043 64.968 108.715 65.224C109.419 65.448 110.027 65.784 110.539 66.232C111.051 66.648 111.467 67.16 111.787 67.768C112.107 68.376 112.267 69.048 112.267 69.784V73.72C112.267 75.064 111.771 76.168 110.779 77.032C109.819 77.928 108.603 78.376 107.131 78.376H88.5073C88.0913 78.376 87.6113 78.28 87.0673 78.088C86.5233 77.928 85.9793 77.656 85.4353 77.272C84.9233 76.92 84.4593 76.456 84.0433 75.88C83.6273 75.304 83.3553 74.6 83.2273 73.768V69.784C83.3553 68.92 83.6753 68.184 84.1873 67.576C84.6993 66.936 85.2913 66.424 85.9633 66.04C86.6353 65.624 87.3073 65.32 87.9793 65.128C88.6833 64.936 89.3073 64.84 89.8513 64.84H106.651ZM106.939 38.008H112.411V61.336H106.939V53.224H103.387V61.336H97.9153V38.008H103.387V48.616H106.939V38.008ZM104.587 69.832H91.8193C90.8913 69.832 90.2833 69.992 89.9953 70.312C89.7073 70.6 89.4833 70.904 89.3233 71.224L89.2753 72.472C89.5633 73.112 89.8993 73.48 90.2833 73.576C90.6673 73.672 91.1793 73.72 91.8193 73.72H104.635C105.179 73.72 105.643 73.624 106.027 73.432C106.443 73.24 106.651 72.92 106.651 72.472V71.56C106.651 71.112 106.443 70.712 106.027 70.36C105.643 70.008 105.163 69.832 104.587 69.832ZM89.5633 53.368V50.152C89.5633 49.352 89.3873 48.68 89.0353 48.136C88.7153 47.592 88.1553 47.32 87.3553 47.32H85.1473C84.3473 47.32 83.7393 47.592 83.3233 48.136C82.9393 48.68 82.7473 49.352 82.7473 50.152V53.512C82.7473 55.112 83.5793 55.912 85.2433 55.912H87.0673C87.8673 55.912 88.4753 55.688 88.8913 55.24C89.3393 54.792 89.5633 54.168 89.5633 53.368ZM136.644 45.976H121.956V51.976H135.444V57.496H121.956V63.976H137.604V69.544H115.284V40.456H136.644V45.976ZM146.532 51.496H152.1V57.688H146.532V78.424H140.388V38.536H146.532V51.496ZM167.851 39.64C168.715 39.64 169.531 39.816 170.299 40.168C171.099 40.488 171.787 40.952 172.363 41.56C172.971 42.168 173.435 42.872 173.755 43.672C174.107 44.472 174.283 45.336 174.283 46.264V52.888C174.283 53.816 174.107 54.68 173.755 55.48C173.435 56.28 172.971 56.984 172.363 57.592C171.787 58.2 171.099 58.68 170.299 59.032C169.531 59.352 168.715 59.512 167.851 59.512H161.659C160.795 59.512 159.947 59.352 159.115 59.032C158.315 58.68 157.611 58.2 157.003 57.592C156.395 56.984 155.899 56.28 155.515 55.48C155.163 54.68 154.987 53.816 154.987 52.888V46.264C154.987 45.336 155.163 44.472 155.515 43.672C155.899 42.872 156.395 42.168 157.003 41.56C157.611 40.952 158.315 40.488 159.115 40.168C159.947 39.816 160.795 39.64 161.659 39.64H167.851ZM168.667 51.544V47.608C168.667 46.776 168.395 46.104 167.851 45.592C167.307 45.048 166.635 44.776 165.835 44.776H163.675C162.875 44.776 162.171 45.048 161.563 45.592C160.987 46.104 160.699 46.776 160.699 47.608V51.544C160.699 52.376 160.987 53.064 161.563 53.608C162.171 54.152 162.875 54.424 163.675 54.424H165.835C166.635 54.424 167.307 54.152 167.851 53.608C168.395 53.064 168.667 52.376 168.667 51.544ZM180.859 37.96H186.523V60.568H180.859V37.96ZM186.667 78.376H159.979V63.064H166.075V67H180.907V63.064H186.667V78.376ZM166.075 74.152H180.907V70.792H166.075V74.152ZM215.022 38.488C217.134 38.488 218.814 39.064 220.062 40.216C221.342 41.336 221.982 42.84 221.982 44.728V47.848C221.982 49.512 221.326 50.92 220.014 52.072C218.734 53.224 216.782 53.8 214.158 53.8H201.582C200.334 53.8 199.246 53.64 198.318 53.32C197.39 53 196.606 52.568 195.966 52.024C195.326 51.48 194.846 50.856 194.526 50.152C194.206 49.448 194.046 48.712 194.046 47.944V44.296C194.046 42.536 194.686 41.128 195.966 40.072C197.246 39.016 198.942 38.488 201.054 38.488H215.022ZM194.286 77.944V64.648H199.758V72.424H221.742V77.944H194.286ZM226.494 62.104H189.534V57.16H226.494V62.104ZM213.486 49.432C214.318 49.432 215.006 49.176 215.55 48.664C216.126 48.152 216.414 47.384 216.414 46.36C216.414 45.56 216.126 44.872 215.55 44.296C215.006 43.688 214.318 43.384 213.486 43.384H202.446C201.582 43.384 200.846 43.688 200.238 44.296C199.662 44.872 199.374 45.56 199.374 46.36C199.374 47.128 199.646 47.832 200.19 48.472C200.766 49.112 201.518 49.432 202.446 49.432H213.486Z" fill="#815854"/>
</g>
<g filter="url(#filter2_d)">
<path d="M236.328 68.1953C236.328 65.9141 236.586 64.1172 237.102 62.8047C237.617 61.4766 238.453 60.3281 239.609 59.3594C240.766 58.3906 241.641 57.5078 242.234 56.7109C242.844 55.8984 243.148 55.0078 243.148 54.0391C243.148 51.6797 242.133 50.5 240.102 50.5C239.164 50.5 238.406 50.8438 237.828 51.5312C237.25 52.2188 236.945 53.1484 236.914 54.3203H228.992C229.023 51.1953 230.008 48.7656 231.945 47.0312C233.883 45.2812 236.602 44.4062 240.102 44.4062C243.586 44.4062 246.281 45.2109 248.188 46.8203C250.109 48.4297 251.07 50.7188 251.07 53.6875C251.07 54.9844 250.812 56.1641 250.297 57.2266C249.781 58.2891 248.953 59.375 247.812 60.4844L245.117 62.9922C244.352 63.7266 243.82 64.4844 243.523 65.2656C243.227 66.0312 243.062 67.0078 243.031 68.1953H236.328ZM235.367 75.3203C235.367 74.1641 235.781 73.2188 236.609 72.4844C237.453 71.7344 238.5 71.3594 239.75 71.3594C241 71.3594 242.039 71.7344 242.867 72.4844C243.711 73.2188 244.133 74.1641 244.133 75.3203C244.133 76.4766 243.711 77.4297 242.867 78.1797C242.039 78.9141 241 79.2812 239.75 79.2812C238.5 79.2812 237.453 78.9141 236.609 78.1797C235.781 77.4297 235.367 76.4766 235.367 75.3203Z" fill="#815854"/>
</g>
<defs>
<filter id="filter0_d" x="1.28339" y="2.48499" width="56.4245" height="33.47" filterUnits="userSpaceOnUse" color-interpolation-filters="sRGB">
<feFlood flood-opacity="0" result="BackgroundImageFix"/>
<feColorMatrix in="SourceAlpha" type="matrix" values="0 0 0 0 0 0 0 0 0 0 0 0 0 0 0 0 0 0 127 0"/>
<feOffset dx="2" dy="4"/>
<feColorMatrix type="matrix" values="0 0 0 0 0 0 0 0 0 0 0 0 0 0 0 0 0 0 0.13 0"/>
<feBlend mode="normal" in2="BackgroundImageFix" result="effect1_dropShadow"/>
<feBlend mode="normal" in="SourceGraphic" in2="effect1_dropShadow" result="shape"/>
</filter>
<filter id="filter1_d" x="35.5025" y="37.96" width="192.991" height="44.464" filterUnits="userSpaceOnUse" color-interpolation-filters="sRGB">
<feFlood flood-opacity="0" result="BackgroundImageFix"/>
<feColorMatrix in="SourceAlpha" type="matrix" values="0 0 0 0 0 0 0 0 0 0 0 0 0 0 0 0 0 0 127 0"/>
<feOffset dx="2" dy="4"/>
<feColorMatrix type="matrix" values="0 0 0 0 0 0 0 0 0 0 0 0 0 0 0 0 0 0 0.13 0"/>
<feBlend mode="normal" in2="BackgroundImageFix" result="effect1_dropShadow"/>
<feBlend mode="normal" in="SourceGraphic" in2="effect1_dropShadow" result="shape"/>
</filter>
<filter id="filter2_d" x="228.992" y="44.4062" width="24.0781" height="38.875" filterUnits="userSpaceOnUse" color-interpolation-filters="sRGB">
<feFlood flood-opacity="0" result="BackgroundImageFix"/>
<feColorMatrix in="SourceAlpha" type="matrix" values="0 0 0 0 0 0 0 0 0 0 0 0 0 0 0 0 0 0 127 0"/>
<feOffset dx="2" dy="4"/>
<feColorMatrix type="matrix" values="0 0 0 0 0 0 0 0 0 0 0 0 0 0 0 0 0 0 0.13 0"/>
<feBlend mode="normal" in2="BackgroundImageFix" result="effect1_dropShadow"/>
<feBlend mode="normal" in="SourceGraphic" in2="effect1_dropShadow" result="shape"/>
</filter>
</defs>
</svg>
